<mxfile host="app.diagrams.net" agent="Mozilla/5.0 (Macintosh; Intel Mac OS X 10_15_7) AppleWebKit/537.36 (KHTML, like Gecko) Chrome/127.0.0.0 Safari/537.36" version="26.0.10">
  <diagram name="Page-1" id="q8qRLyGJDkFtIbMl8rNu">
    <mxGraphModel dx="3187" dy="2929" grid="1" gridSize="10" guides="1" tooltips="1" connect="1" arrows="1" fold="1" page="1" pageScale="1" pageWidth="827" pageHeight="1169" math="0" shadow="0">
      <root>
        <mxCell id="0" />
        <mxCell id="1" parent="0" />
        <mxCell id="FBthpBhYrQ3rwWkpLD-9-11" style="edgeStyle=orthogonalEdgeStyle;rounded=0;orthogonalLoop=1;jettySize=auto;html=1;" edge="1" parent="1" source="FBthpBhYrQ3rwWkpLD-9-2" target="FBthpBhYrQ3rwWkpLD-9-9">
          <mxGeometry relative="1" as="geometry" />
        </mxCell>
        <mxCell id="FBthpBhYrQ3rwWkpLD-9-2" value="" style="rounded=1;whiteSpace=wrap;html=1;" vertex="1" parent="1">
          <mxGeometry x="50" y="70" width="430" height="560" as="geometry" />
        </mxCell>
        <mxCell id="FBthpBhYrQ3rwWkpLD-9-4" value="Cloud Watch" style="sketch=0;outlineConnect=0;fontColor=#232F3E;gradientColor=none;fillColor=#E7157B;strokeColor=none;dashed=0;verticalLabelPosition=bottom;verticalAlign=top;align=center;html=1;fontSize=12;fontStyle=0;aspect=fixed;pointerEvents=1;shape=mxgraph.aws4.cloudwatch_logs;" vertex="1" parent="1">
          <mxGeometry x="210" y="120" width="78" height="58" as="geometry" />
        </mxCell>
        <mxCell id="FBthpBhYrQ3rwWkpLD-9-5" value="new relic" style="shape=document;whiteSpace=wrap;html=1;boundedLbl=1;" vertex="1" parent="1">
          <mxGeometry x="195" y="260" width="120" height="80" as="geometry" />
        </mxCell>
        <mxCell id="FBthpBhYrQ3rwWkpLD-9-6" value="Grafana" style="image;aspect=fixed;html=1;points=[];align=center;fontSize=12;image=img/lib/azure2/other/Grafana.svg;" vertex="1" parent="1">
          <mxGeometry x="221" y="370" width="68" height="52.800000000000004" as="geometry" />
        </mxCell>
        <mxCell id="FBthpBhYrQ3rwWkpLD-9-7" value="" style="endArrow=none;dashed=1;html=1;dashPattern=1 3;strokeWidth=2;rounded=0;" edge="1" parent="1">
          <mxGeometry width="50" height="50" relative="1" as="geometry">
            <mxPoint x="256.21" y="446" as="sourcePoint" />
            <mxPoint x="256" y="526" as="targetPoint" />
          </mxGeometry>
        </mxCell>
        <mxCell id="FBthpBhYrQ3rwWkpLD-9-8" value="Other Logs" style="shape=document;whiteSpace=wrap;html=1;boundedLbl=1;" vertex="1" parent="1">
          <mxGeometry x="205" y="530" width="120" height="80" as="geometry" />
        </mxCell>
        <mxCell id="FBthpBhYrQ3rwWkpLD-9-9" value="AWS S3" style="outlineConnect=0;dashed=0;verticalLabelPosition=bottom;verticalAlign=top;align=center;html=1;shape=mxgraph.aws3.s3;fillColor=#E05243;gradientColor=none;" vertex="1" parent="1">
          <mxGeometry x="650" y="280" width="100" height="140" as="geometry" />
        </mxCell>
        <mxCell id="FBthpBhYrQ3rwWkpLD-9-23" value="" style="edgeStyle=orthogonalEdgeStyle;rounded=0;orthogonalLoop=1;jettySize=auto;html=1;" edge="1" parent="1" source="FBthpBhYrQ3rwWkpLD-9-15" target="FBthpBhYrQ3rwWkpLD-9-22">
          <mxGeometry relative="1" as="geometry">
            <Array as="points">
              <mxPoint x="895" y="60" />
            </Array>
          </mxGeometry>
        </mxCell>
        <mxCell id="FBthpBhYrQ3rwWkpLD-9-46" value="Event Correlation" style="edgeLabel;html=1;align=center;verticalAlign=middle;resizable=0;points=[];" vertex="1" connectable="0" parent="FBthpBhYrQ3rwWkpLD-9-23">
          <mxGeometry x="0.6284" y="2" relative="1" as="geometry">
            <mxPoint as="offset" />
          </mxGeometry>
        </mxCell>
        <mxCell id="FBthpBhYrQ3rwWkpLD-9-25" value="" style="edgeStyle=orthogonalEdgeStyle;rounded=0;orthogonalLoop=1;jettySize=auto;html=1;" edge="1" parent="1" source="FBthpBhYrQ3rwWkpLD-9-15" target="FBthpBhYrQ3rwWkpLD-9-24">
          <mxGeometry relative="1" as="geometry">
            <Array as="points">
              <mxPoint x="895" y="220" />
            </Array>
          </mxGeometry>
        </mxCell>
        <mxCell id="FBthpBhYrQ3rwWkpLD-9-47" value="Noise Reduction" style="edgeLabel;html=1;align=center;verticalAlign=middle;resizable=0;points=[];" vertex="1" connectable="0" parent="FBthpBhYrQ3rwWkpLD-9-25">
          <mxGeometry x="0.3179" relative="1" as="geometry">
            <mxPoint as="offset" />
          </mxGeometry>
        </mxCell>
        <mxCell id="FBthpBhYrQ3rwWkpLD-9-28" value="" style="edgeStyle=orthogonalEdgeStyle;rounded=0;orthogonalLoop=1;jettySize=auto;html=1;" edge="1" parent="1" source="FBthpBhYrQ3rwWkpLD-9-15" target="FBthpBhYrQ3rwWkpLD-9-27">
          <mxGeometry relative="1" as="geometry">
            <Array as="points">
              <mxPoint x="895" y="450" />
            </Array>
          </mxGeometry>
        </mxCell>
        <mxCell id="FBthpBhYrQ3rwWkpLD-9-48" value="Anomaly" style="edgeLabel;html=1;align=center;verticalAlign=middle;resizable=0;points=[];" vertex="1" connectable="0" parent="FBthpBhYrQ3rwWkpLD-9-28">
          <mxGeometry x="0.2482" y="-4" relative="1" as="geometry">
            <mxPoint y="-4" as="offset" />
          </mxGeometry>
        </mxCell>
        <mxCell id="FBthpBhYrQ3rwWkpLD-9-30" value="" style="edgeStyle=orthogonalEdgeStyle;rounded=0;orthogonalLoop=1;jettySize=auto;html=1;" edge="1" parent="1" source="FBthpBhYrQ3rwWkpLD-9-15" target="FBthpBhYrQ3rwWkpLD-9-29">
          <mxGeometry relative="1" as="geometry">
            <Array as="points">
              <mxPoint x="895" y="610" />
            </Array>
          </mxGeometry>
        </mxCell>
        <mxCell id="FBthpBhYrQ3rwWkpLD-9-49" value="RCA" style="edgeLabel;html=1;align=center;verticalAlign=middle;resizable=0;points=[];" vertex="1" connectable="0" parent="FBthpBhYrQ3rwWkpLD-9-30">
          <mxGeometry x="0.5864" y="-1" relative="1" as="geometry">
            <mxPoint as="offset" />
          </mxGeometry>
        </mxCell>
        <mxCell id="FBthpBhYrQ3rwWkpLD-9-15" value="" style="outlineConnect=0;dashed=0;verticalLabelPosition=bottom;verticalAlign=top;align=center;html=1;shape=mxgraph.aws3.lambda_function;fillColor=#F58534;gradientColor=none;" vertex="1" parent="1">
          <mxGeometry x="840" y="302" width="109" height="96" as="geometry" />
        </mxCell>
        <mxCell id="FBthpBhYrQ3rwWkpLD-9-16" style="edgeStyle=orthogonalEdgeStyle;rounded=0;orthogonalLoop=1;jettySize=auto;html=1;exitX=1;exitY=0.5;exitDx=0;exitDy=0;exitPerimeter=0;entryX=0;entryY=0.5;entryDx=0;entryDy=0;entryPerimeter=0;" edge="1" parent="1" source="FBthpBhYrQ3rwWkpLD-9-9" target="FBthpBhYrQ3rwWkpLD-9-15">
          <mxGeometry relative="1" as="geometry" />
        </mxCell>
        <mxCell id="FBthpBhYrQ3rwWkpLD-9-17" value="" style="sketch=0;points=[[0,0,0],[0.25,0,0],[0.5,0,0],[0.75,0,0],[1,0,0],[0,1,0],[0.25,1,0],[0.5,1,0],[0.75,1,0],[1,1,0],[0,0.25,0],[0,0.5,0],[0,0.75,0],[1,0.25,0],[1,0.5,0],[1,0.75,0]];outlineConnect=0;fontColor=#232F3E;fillColor=#01A88D;strokeColor=#ffffff;dashed=0;verticalLabelPosition=bottom;verticalAlign=top;align=center;html=1;fontSize=12;fontStyle=0;aspect=fixed;shape=mxgraph.aws4.resourceIcon;resIcon=mxgraph.aws4.sagemaker;" vertex="1" parent="1">
          <mxGeometry x="1298" y="-120" width="60" height="60" as="geometry" />
        </mxCell>
        <mxCell id="FBthpBhYrQ3rwWkpLD-9-35" style="edgeStyle=orthogonalEdgeStyle;rounded=0;orthogonalLoop=1;jettySize=auto;html=1;exitX=1;exitY=0.5;exitDx=0;exitDy=0;exitPerimeter=0;" edge="1" parent="1" source="FBthpBhYrQ3rwWkpLD-9-22" target="FBthpBhYrQ3rwWkpLD-9-34">
          <mxGeometry relative="1" as="geometry">
            <Array as="points">
              <mxPoint x="1149" y="20" />
              <mxPoint x="1223" y="20" />
              <mxPoint x="1223" y="-20" />
            </Array>
          </mxGeometry>
        </mxCell>
        <mxCell id="FBthpBhYrQ3rwWkpLD-9-51" style="edgeStyle=orthogonalEdgeStyle;rounded=0;orthogonalLoop=1;jettySize=auto;html=1;exitX=1;exitY=0.5;exitDx=0;exitDy=0;exitPerimeter=0;" edge="1" parent="1" source="FBthpBhYrQ3rwWkpLD-9-22">
          <mxGeometry relative="1" as="geometry">
            <mxPoint x="1300" y="58" as="targetPoint" />
          </mxGeometry>
        </mxCell>
        <mxCell id="FBthpBhYrQ3rwWkpLD-9-22" value="" style="outlineConnect=0;dashed=0;verticalLabelPosition=bottom;verticalAlign=top;align=center;html=1;shape=mxgraph.aws3.lambda_function;fillColor=#F58534;gradientColor=none;" vertex="1" parent="1">
          <mxGeometry x="1040" y="10" width="109" height="96" as="geometry" />
        </mxCell>
        <mxCell id="FBthpBhYrQ3rwWkpLD-9-64" style="edgeStyle=orthogonalEdgeStyle;rounded=0;orthogonalLoop=1;jettySize=auto;html=1;entryX=0;entryY=0.5;entryDx=0;entryDy=0;" edge="1" parent="1" source="FBthpBhYrQ3rwWkpLD-9-24" target="FBthpBhYrQ3rwWkpLD-9-54">
          <mxGeometry relative="1" as="geometry" />
        </mxCell>
        <mxCell id="FBthpBhYrQ3rwWkpLD-9-24" value="" style="outlineConnect=0;dashed=0;verticalLabelPosition=bottom;verticalAlign=top;align=center;html=1;shape=mxgraph.aws3.lambda_function;fillColor=#F58534;gradientColor=none;" vertex="1" parent="1">
          <mxGeometry x="1050" y="170" width="109" height="96" as="geometry" />
        </mxCell>
        <mxCell id="FBthpBhYrQ3rwWkpLD-9-65" style="edgeStyle=orthogonalEdgeStyle;rounded=0;orthogonalLoop=1;jettySize=auto;html=1;exitX=0.5;exitY=0;exitDx=0;exitDy=0;exitPerimeter=0;" edge="1" parent="1" source="FBthpBhYrQ3rwWkpLD-9-27" target="FBthpBhYrQ3rwWkpLD-9-55">
          <mxGeometry relative="1" as="geometry" />
        </mxCell>
        <mxCell id="FBthpBhYrQ3rwWkpLD-9-68" style="edgeStyle=orthogonalEdgeStyle;rounded=0;orthogonalLoop=1;jettySize=auto;html=1;exitX=0.855;exitY=0.855;exitDx=0;exitDy=0;exitPerimeter=0;" edge="1" parent="1" source="FBthpBhYrQ3rwWkpLD-9-27" target="FBthpBhYrQ3rwWkpLD-9-57">
          <mxGeometry relative="1" as="geometry" />
        </mxCell>
        <mxCell id="FBthpBhYrQ3rwWkpLD-9-27" value="" style="outlineConnect=0;dashed=0;verticalLabelPosition=bottom;verticalAlign=top;align=center;html=1;shape=mxgraph.aws3.lambda_function;fillColor=#F58534;gradientColor=none;" vertex="1" parent="1">
          <mxGeometry x="1050" y="398" width="109" height="96" as="geometry" />
        </mxCell>
        <mxCell id="FBthpBhYrQ3rwWkpLD-9-72" style="edgeStyle=orthogonalEdgeStyle;rounded=0;orthogonalLoop=1;jettySize=auto;html=1;exitX=0.5;exitY=1;exitDx=0;exitDy=0;exitPerimeter=0;entryX=0;entryY=0.5;entryDx=0;entryDy=0;" edge="1" parent="1" source="FBthpBhYrQ3rwWkpLD-9-29" target="FBthpBhYrQ3rwWkpLD-9-60">
          <mxGeometry relative="1" as="geometry" />
        </mxCell>
        <mxCell id="FBthpBhYrQ3rwWkpLD-9-29" value="" style="outlineConnect=0;dashed=0;verticalLabelPosition=bottom;verticalAlign=top;align=center;html=1;shape=mxgraph.aws3.lambda_function;fillColor=#F58534;gradientColor=none;" vertex="1" parent="1">
          <mxGeometry x="1050" y="550" width="109" height="96" as="geometry" />
        </mxCell>
        <mxCell id="FBthpBhYrQ3rwWkpLD-9-32" style="edgeStyle=orthogonalEdgeStyle;rounded=0;orthogonalLoop=1;jettySize=auto;html=1;exitX=0.5;exitY=0;exitDx=0;exitDy=0;exitPerimeter=0;entryX=0;entryY=0.5;entryDx=0;entryDy=0;entryPerimeter=0;" edge="1" parent="1" source="FBthpBhYrQ3rwWkpLD-9-22" target="FBthpBhYrQ3rwWkpLD-9-17">
          <mxGeometry relative="1" as="geometry" />
        </mxCell>
        <mxCell id="FBthpBhYrQ3rwWkpLD-9-33" style="edgeStyle=orthogonalEdgeStyle;rounded=0;orthogonalLoop=1;jettySize=auto;html=1;exitX=0;exitY=0.75;exitDx=0;exitDy=0;exitPerimeter=0;entryX=0.855;entryY=0.145;entryDx=0;entryDy=0;entryPerimeter=0;" edge="1" parent="1" source="FBthpBhYrQ3rwWkpLD-9-17" target="FBthpBhYrQ3rwWkpLD-9-22">
          <mxGeometry relative="1" as="geometry" />
        </mxCell>
        <mxCell id="FBthpBhYrQ3rwWkpLD-9-34" value="" style="outlineConnect=0;dashed=0;verticalLabelPosition=bottom;verticalAlign=top;align=center;html=1;shape=mxgraph.aws3.dynamo_db;fillColor=#2E73B8;gradientColor=none;" vertex="1" parent="1">
          <mxGeometry x="1306" y="-50" width="44" height="60" as="geometry" />
        </mxCell>
        <mxCell id="FBthpBhYrQ3rwWkpLD-9-36" value="" style="shape=image;html=1;verticalAlign=top;verticalLabelPosition=bottom;labelBackgroundColor=#ffffff;imageAspect=0;aspect=fixed;image=https://cdn2.iconfinder.com/data/icons/social-media-2285/512/1_Slack_colored_svg-128.png" vertex="1" parent="1">
          <mxGeometry x="1300.5" y="20" width="55" height="55" as="geometry" />
        </mxCell>
        <mxCell id="FBthpBhYrQ3rwWkpLD-9-52" value="" style="sketch=0;points=[[0,0,0],[0.25,0,0],[0.5,0,0],[0.75,0,0],[1,0,0],[0,1,0],[0.25,1,0],[0.5,1,0],[0.75,1,0],[1,1,0],[0,0.25,0],[0,0.5,0],[0,0.75,0],[1,0.25,0],[1,0.5,0],[1,0.75,0]];outlineConnect=0;fontColor=#232F3E;fillColor=#01A88D;strokeColor=#ffffff;dashed=0;verticalLabelPosition=bottom;verticalAlign=top;align=center;html=1;fontSize=12;fontStyle=0;aspect=fixed;shape=mxgraph.aws4.resourceIcon;resIcon=mxgraph.aws4.sagemaker;" vertex="1" parent="1">
          <mxGeometry x="1308" y="106" width="60" height="60" as="geometry" />
        </mxCell>
        <mxCell id="FBthpBhYrQ3rwWkpLD-9-53" value="" style="outlineConnect=0;dashed=0;verticalLabelPosition=bottom;verticalAlign=top;align=center;html=1;shape=mxgraph.aws3.dynamo_db;fillColor=#2E73B8;gradientColor=none;" vertex="1" parent="1">
          <mxGeometry x="1316" y="176" width="44" height="60" as="geometry" />
        </mxCell>
        <mxCell id="FBthpBhYrQ3rwWkpLD-9-54" value="" style="shape=image;html=1;verticalAlign=top;verticalLabelPosition=bottom;labelBackgroundColor=#ffffff;imageAspect=0;aspect=fixed;image=https://cdn2.iconfinder.com/data/icons/social-media-2285/512/1_Slack_colored_svg-128.png" vertex="1" parent="1">
          <mxGeometry x="1310.5" y="246" width="55" height="55" as="geometry" />
        </mxCell>
        <mxCell id="FBthpBhYrQ3rwWkpLD-9-55" value="" style="sketch=0;points=[[0,0,0],[0.25,0,0],[0.5,0,0],[0.75,0,0],[1,0,0],[0,1,0],[0.25,1,0],[0.5,1,0],[0.75,1,0],[1,1,0],[0,0.25,0],[0,0.5,0],[0,0.75,0],[1,0.25,0],[1,0.5,0],[1,0.75,0]];outlineConnect=0;fontColor=#232F3E;fillColor=#01A88D;strokeColor=#ffffff;dashed=0;verticalLabelPosition=bottom;verticalAlign=top;align=center;html=1;fontSize=12;fontStyle=0;aspect=fixed;shape=mxgraph.aws4.resourceIcon;resIcon=mxgraph.aws4.sagemaker;" vertex="1" parent="1">
          <mxGeometry x="1305.5" y="348.5" width="60" height="60" as="geometry" />
        </mxCell>
        <mxCell id="FBthpBhYrQ3rwWkpLD-9-56" value="" style="outlineConnect=0;dashed=0;verticalLabelPosition=bottom;verticalAlign=top;align=center;html=1;shape=mxgraph.aws3.dynamo_db;fillColor=#2E73B8;gradientColor=none;" vertex="1" parent="1">
          <mxGeometry x="1314" y="416" width="44" height="60" as="geometry" />
        </mxCell>
        <mxCell id="FBthpBhYrQ3rwWkpLD-9-57" value="" style="shape=image;html=1;verticalAlign=top;verticalLabelPosition=bottom;labelBackgroundColor=#ffffff;imageAspect=0;aspect=fixed;image=https://cdn2.iconfinder.com/data/icons/social-media-2285/512/1_Slack_colored_svg-128.png" vertex="1" parent="1">
          <mxGeometry x="1308" y="488.5" width="55" height="55" as="geometry" />
        </mxCell>
        <mxCell id="FBthpBhYrQ3rwWkpLD-9-70" style="edgeStyle=orthogonalEdgeStyle;rounded=0;orthogonalLoop=1;jettySize=auto;html=1;exitX=0;exitY=0.5;exitDx=0;exitDy=0;exitPerimeter=0;" edge="1" parent="1" source="FBthpBhYrQ3rwWkpLD-9-58">
          <mxGeometry relative="1" as="geometry">
            <mxPoint x="1150" y="610" as="targetPoint" />
          </mxGeometry>
        </mxCell>
        <mxCell id="FBthpBhYrQ3rwWkpLD-9-58" value="" style="sketch=0;points=[[0,0,0],[0.25,0,0],[0.5,0,0],[0.75,0,0],[1,0,0],[0,1,0],[0.25,1,0],[0.5,1,0],[0.75,1,0],[1,1,0],[0,0.25,0],[0,0.5,0],[0,0.75,0],[1,0.25,0],[1,0.5,0],[1,0.75,0]];outlineConnect=0;fontColor=#232F3E;fillColor=#01A88D;strokeColor=#ffffff;dashed=0;verticalLabelPosition=bottom;verticalAlign=top;align=center;html=1;fontSize=12;fontStyle=0;aspect=fixed;shape=mxgraph.aws4.resourceIcon;resIcon=mxgraph.aws4.sagemaker;" vertex="1" parent="1">
          <mxGeometry x="1308" y="570" width="60" height="60" as="geometry" />
        </mxCell>
        <mxCell id="FBthpBhYrQ3rwWkpLD-9-59" value="" style="outlineConnect=0;dashed=0;verticalLabelPosition=bottom;verticalAlign=top;align=center;html=1;shape=mxgraph.aws3.dynamo_db;fillColor=#2E73B8;gradientColor=none;" vertex="1" parent="1">
          <mxGeometry x="1316" y="640" width="44" height="60" as="geometry" />
        </mxCell>
        <mxCell id="FBthpBhYrQ3rwWkpLD-9-60" value="" style="shape=image;html=1;verticalAlign=top;verticalLabelPosition=bottom;labelBackgroundColor=#ffffff;imageAspect=0;aspect=fixed;image=https://cdn2.iconfinder.com/data/icons/social-media-2285/512/1_Slack_colored_svg-128.png" vertex="1" parent="1">
          <mxGeometry x="1310.5" y="710" width="55" height="55" as="geometry" />
        </mxCell>
        <mxCell id="FBthpBhYrQ3rwWkpLD-9-61" style="edgeStyle=orthogonalEdgeStyle;rounded=0;orthogonalLoop=1;jettySize=auto;html=1;exitX=0.5;exitY=0;exitDx=0;exitDy=0;exitPerimeter=0;entryX=0;entryY=0.25;entryDx=0;entryDy=0;entryPerimeter=0;" edge="1" parent="1" source="FBthpBhYrQ3rwWkpLD-9-24" target="FBthpBhYrQ3rwWkpLD-9-52">
          <mxGeometry relative="1" as="geometry" />
        </mxCell>
        <mxCell id="FBthpBhYrQ3rwWkpLD-9-62" style="edgeStyle=orthogonalEdgeStyle;rounded=0;orthogonalLoop=1;jettySize=auto;html=1;exitX=0;exitY=0.5;exitDx=0;exitDy=0;exitPerimeter=0;entryX=0.855;entryY=0.145;entryDx=0;entryDy=0;entryPerimeter=0;" edge="1" parent="1" source="FBthpBhYrQ3rwWkpLD-9-52" target="FBthpBhYrQ3rwWkpLD-9-24">
          <mxGeometry relative="1" as="geometry" />
        </mxCell>
        <mxCell id="FBthpBhYrQ3rwWkpLD-9-63" style="edgeStyle=orthogonalEdgeStyle;rounded=0;orthogonalLoop=1;jettySize=auto;html=1;exitX=1;exitY=0.5;exitDx=0;exitDy=0;exitPerimeter=0;entryX=0;entryY=0.22;entryDx=0;entryDy=0;entryPerimeter=0;" edge="1" parent="1" source="FBthpBhYrQ3rwWkpLD-9-24" target="FBthpBhYrQ3rwWkpLD-9-53">
          <mxGeometry relative="1" as="geometry" />
        </mxCell>
        <mxCell id="FBthpBhYrQ3rwWkpLD-9-66" style="edgeStyle=orthogonalEdgeStyle;rounded=0;orthogonalLoop=1;jettySize=auto;html=1;exitX=0;exitY=0.75;exitDx=0;exitDy=0;exitPerimeter=0;entryX=0.855;entryY=0.145;entryDx=0;entryDy=0;entryPerimeter=0;" edge="1" parent="1" source="FBthpBhYrQ3rwWkpLD-9-55" target="FBthpBhYrQ3rwWkpLD-9-27">
          <mxGeometry relative="1" as="geometry" />
        </mxCell>
        <mxCell id="FBthpBhYrQ3rwWkpLD-9-67" style="edgeStyle=orthogonalEdgeStyle;rounded=0;orthogonalLoop=1;jettySize=auto;html=1;exitX=1;exitY=0.5;exitDx=0;exitDy=0;exitPerimeter=0;entryX=0;entryY=0.5;entryDx=0;entryDy=0;entryPerimeter=0;" edge="1" parent="1" source="FBthpBhYrQ3rwWkpLD-9-27" target="FBthpBhYrQ3rwWkpLD-9-56">
          <mxGeometry relative="1" as="geometry" />
        </mxCell>
        <mxCell id="FBthpBhYrQ3rwWkpLD-9-69" style="edgeStyle=orthogonalEdgeStyle;rounded=0;orthogonalLoop=1;jettySize=auto;html=1;exitX=1;exitY=0.5;exitDx=0;exitDy=0;exitPerimeter=0;entryX=0;entryY=0.25;entryDx=0;entryDy=0;entryPerimeter=0;" edge="1" parent="1" source="FBthpBhYrQ3rwWkpLD-9-29" target="FBthpBhYrQ3rwWkpLD-9-58">
          <mxGeometry relative="1" as="geometry" />
        </mxCell>
        <mxCell id="FBthpBhYrQ3rwWkpLD-9-71" style="edgeStyle=orthogonalEdgeStyle;rounded=0;orthogonalLoop=1;jettySize=auto;html=1;exitX=0.855;exitY=0.855;exitDx=0;exitDy=0;exitPerimeter=0;entryX=0;entryY=0.5;entryDx=0;entryDy=0;entryPerimeter=0;" edge="1" parent="1" source="FBthpBhYrQ3rwWkpLD-9-29" target="FBthpBhYrQ3rwWkpLD-9-59">
          <mxGeometry relative="1" as="geometry" />
        </mxCell>
      </root>
    </mxGraphModel>
  </diagram>
</mxfile>
